<?xml version="1.0" encoding="UTF-8" standalone="no" ?>
<!DOCTYPE svg PUBLIC "-//W3C//DTD SVG 1.1//EN" "http://www.w3.org/Graphics/SVG/1.1/DTD/svg11.dtd">
<svg xmlns="http://www.w3.org/2000/svg" xmlns:xlink="http://www.w3.org/1999/xlink" version="1.1" width="500" height="500" viewBox="0 0 500 500" xml:space="preserve">
<!-- Created with SVG Stack Editor - https://svgstack.com -->
<defs>
</defs>
<rect x="0" y="0" width="100%" height="100%" fill="transparent"></rect>
<g transform="matrix(2.53 0 0 2.53 250 250)"  >
<g style=""   >
		<g transform="matrix(1 0 0 1 0 0)" id="path_0" clip-path="url(#CLIPPATH_1)"  >
<clipPath id="CLIPPATH_1" >
	<rect transform="matrix(1 0 0 1 -0.83 0.32)" id="clip0_106_2177" x="-100" y="-98.485" rx="0" ry="0" width="200" height="196.97" />
</clipPath>
<path style="stroke: none; stroke-width: 1; stroke-dasharray: none; stroke-linecap: butt; stroke-dashoffset: 0; stroke-linejoin: miter; stroke-miterlimit: 4; fill: rgb(245,245,245); fill-rule: nonzero; opacity: 1;"  transform=" translate(-101.07, -98.44)" d="M 170.191 167.56 L 141.1 167.56 L 141.1 122.002 C 141.1 111.139 140.906 97.1537 125.97 97.1537 C 110.818 97.1537 108.5 108.99 108.5 121.211 L 108.5 167.557 L 79.4091 167.557 L 79.4091 73.8719 L 107.336 73.8719 L 107.336 86.6749 L 107.727 86.6749 C 110.522 81.8964 114.561 77.9652 119.413 75.3003 C 124.265 72.6352 129.75 71.3364 135.282 71.5416 C 164.767 71.5416 170.203 90.9355 170.203 116.166 L 170.191 167.56 Z M 46.5849 61.0658 C 43.2461 61.0664 39.9818 60.077 37.2055 58.2225 C 34.4288 56.3679 32.2646 53.7319 30.9864 50.6473 C 29.708 47.5628 29.3731 44.1685 30.0239 40.8937 C 30.6746 37.6188 32.2818 34.6103 34.6424 32.2488 C 37.0031 29.8876 40.0106 28.2792 43.2855 27.6272 C 46.56 26.9752 49.9546 27.309 53.0394 28.5861 C 56.1246 29.8633 58.7615 32.0267 60.617 34.8025 C 62.4724 37.5782 63.4631 40.8422 63.4637 44.1809 C 63.464 46.3979 63.0279 48.5934 62.1797 50.6416 C 61.3318 52.69 60.0885 54.5512 58.5212 56.1191 C 56.954 57.687 55.0931 58.9309 53.0452 59.7797 C 50.997 60.6285 48.8018 61.0655 46.5849 61.0658 Z M 61.1303 167.56 L 32.0091 167.56 L 32.0091 73.8719 L 61.1303 73.8719 L 61.1303 167.56 Z M 184.694 0.287084 L 17.391 0.287084 C 13.5937 0.244231 9.93466 1.7107 7.21803 4.36425 C 4.50142 7.0178 2.94942 10.6413 2.90308 14.4386 L 2.90308 182.435 C 2.94783 186.235 4.49888 189.861 7.21539 192.517 C 9.93194 195.173 13.5918 196.643 17.391 196.602 L 184.694 196.602 C 188.501 196.65 192.171 195.185 194.898 192.529 C 197.625 189.872 199.187 186.242 199.239 182.435 L 199.239 14.4265 C 199.185 10.6217 197.623 6.99404 194.895 4.34056 C 192.168 1.68707 188.499 0.224782 184.694 0.274962 L 184.694 0.287084 Z" stroke-linecap="round" />
</g>
</g>
</g>
<g transform="matrix(2.53 0 0 2.53 250 250)"  >
<g style=""   >
		<g transform="matrix(1 0 0 1 0 0)" id="path_0" clip-path="url(#CLIPPATH_2)"  >
<clipPath id="CLIPPATH_2" >
	<rect transform="matrix(1 0 0 1 -0.83 0.32)" id="clip0_106_2177" x="-100" y="-98.485" rx="0" ry="0" width="200" height="196.97" />
</clipPath>
<path style="stroke: none; stroke-width: 1; stroke-dasharray: none; stroke-linecap: butt; stroke-dashoffset: 0; stroke-linejoin: miter; stroke-miterlimit: 4; fill: rgb(245,245,245); fill-rule: nonzero; opacity: 1;"  transform=" translate(-101.07, -98.44)" d="M 170.191 167.56 L 141.1 167.56 L 141.1 122.002 C 141.1 111.139 140.906 97.1537 125.97 97.1537 C 110.818 97.1537 108.5 108.99 108.5 121.211 L 108.5 167.557 L 79.4091 167.557 L 79.4091 73.8719 L 107.336 73.8719 L 107.336 86.6749 L 107.727 86.6749 C 110.522 81.8964 114.561 77.9652 119.413 75.3003 C 124.265 72.6352 129.75 71.3364 135.282 71.5416 C 164.767 71.5416 170.203 90.9355 170.203 116.166 L 170.191 167.56 Z M 46.5849 61.0658 C 43.2461 61.0664 39.9818 60.077 37.2055 58.2225 C 34.4288 56.3679 32.2646 53.7319 30.9864 50.6473 C 29.708 47.5628 29.3731 44.1685 30.0239 40.8937 C 30.6746 37.6188 32.2818 34.6103 34.6424 32.2488 C 37.0031 29.8876 40.0106 28.2792 43.2855 27.6272 C 46.56 26.9752 49.9546 27.309 53.0394 28.5861 C 56.1246 29.8633 58.7615 32.0267 60.617 34.8025 C 62.4724 37.5782 63.4631 40.8422 63.4637 44.1809 C 63.464 46.3979 63.0279 48.5934 62.1797 50.6416 C 61.3318 52.69 60.0885 54.5512 58.5212 56.1191 C 56.954 57.687 55.0931 58.9309 53.0452 59.7797 C 50.997 60.6285 48.8018 61.0655 46.5849 61.0658 Z M 61.1303 167.56 L 32.0091 167.56 L 32.0091 73.8719 L 61.1303 73.8719 L 61.1303 167.56 Z M 184.694 0.287084 L 17.391 0.287084 C 13.5937 0.244231 9.93466 1.7107 7.21803 4.36425 C 4.50142 7.0178 2.94942 10.6413 2.90308 14.4386 L 2.90308 182.435 C 2.94783 186.235 4.49888 189.861 7.21539 192.517 C 9.93194 195.173 13.5918 196.643 17.391 196.602 L 184.694 196.602 C 188.501 196.65 192.171 195.185 194.898 192.529 C 197.625 189.872 199.187 186.242 199.239 182.435 L 199.239 14.4265 C 199.185 10.6217 197.623 6.99404 194.895 4.34056 C 192.168 1.68707 188.499 0.224782 184.694 0.274962 L 184.694 0.287084 Z" stroke-linecap="round" />
</g>
</g>
</g>
</svg>